<svg width="817" height="294" viewBox="0 0 817 294" fill="none" xmlns="http://www.w3.org/2000/svg">
<path d="M275.829 262.543C275.829 260.238 277.27 257.3 280.15 253.728C283.031 250.04 286.604 245.892 290.867 241.282C295.131 236.673 299.798 231.66 304.868 226.244C309.938 220.828 314.605 215.239 318.869 209.478C323.133 203.601 326.705 197.666 329.586 191.674C332.467 185.566 333.907 179.574 333.907 173.697C333.907 170.586 333.043 167.936 331.314 165.746C329.586 163.441 327.339 161.482 324.573 159.869C321.923 158.256 318.869 156.988 315.412 156.066C312.07 155.145 308.671 154.453 305.214 153.992C301.757 153.416 298.473 153.07 295.361 152.955C292.25 152.725 289.6 152.609 287.41 152.609C286.834 152.609 286.085 152.667 285.163 152.782C284.241 152.782 283.262 152.84 282.225 152.955C281.303 152.955 280.438 153.013 279.632 153.128C278.825 153.243 278.364 153.301 278.249 153.301L276.002 155.375C276.002 155.605 275.944 156.585 275.829 158.313C275.829 160.042 275.771 162.001 275.656 164.19C275.656 166.38 275.656 168.627 275.656 170.932V176.29C275.656 187.929 276.06 199.51 276.866 211.033C277.788 222.441 278.249 233.965 278.249 245.604C278.249 246.295 278.249 247.044 278.249 247.851C278.364 248.657 278.364 249.464 278.249 250.271C278.134 250.962 277.788 251.596 277.212 252.172C276.751 252.633 276.002 252.863 274.965 252.863C274.273 252.863 273.582 252.69 272.891 252.345C272.199 251.999 271.796 251.423 271.681 250.616L264.939 159.696C264.594 159.927 263.96 160.272 263.038 160.733C262.231 161.079 261.367 161.482 260.445 161.943C259.523 162.404 258.602 162.923 257.68 163.499C256.873 163.96 256.354 164.19 256.124 164.19C256.009 164.19 255.778 164.248 255.433 164.363C255.202 164.363 255.029 164.363 254.914 164.363C254.338 164.363 253.646 164.248 252.84 164.018C252.148 163.672 251.803 162.98 251.803 161.943C251.803 160.215 252.148 158.832 252.84 157.795C253.646 156.643 254.626 155.605 255.778 154.684C257.046 153.762 258.371 152.84 259.754 151.918C261.137 150.996 262.404 149.844 263.557 148.461C264.824 146.963 265.804 145.119 266.495 142.93C267.302 140.74 267.705 137.975 267.705 134.633C270.01 134.633 271.45 135.036 272.026 135.843C272.603 136.649 272.948 137.629 273.063 138.781C273.179 139.818 273.294 140.913 273.409 142.065C273.64 143.103 274.504 143.852 276.002 144.312C279.229 144.197 283.089 144.197 287.583 144.312C292.192 144.428 296.975 144.831 301.93 145.522C307 146.099 311.955 147.021 316.795 148.288C321.75 149.556 326.129 151.342 329.932 153.646C333.85 155.951 336.903 158.89 339.093 162.462C341.397 165.919 342.435 170.183 342.204 175.253C340.706 184.126 337.825 192.653 333.562 200.835C329.413 209.017 324.458 216.91 318.696 224.516C313.05 232.006 306.885 239.208 300.201 246.122C293.633 253.036 287.064 259.662 280.496 266C280.381 266 280.208 266 279.978 266C279.747 266.115 279.574 266.173 279.459 266.173C278.422 266.173 277.558 265.827 276.866 265.136C276.175 264.444 275.829 263.58 275.829 262.543ZM349.173 242.319C348.367 237.019 347.964 231.891 347.964 226.936C347.964 221.865 348.252 216.737 348.828 211.552C349.519 206.366 350.441 201.008 351.593 195.477C352.861 189.83 354.301 183.78 355.915 177.327C355.915 176.06 356.26 174.907 356.952 173.87C357.643 172.718 358.565 171.796 359.717 171.104C360.87 170.298 362.08 169.664 363.347 169.203C364.615 168.742 365.825 168.512 366.977 168.512C369.512 168.512 371.817 169.318 373.891 170.932C375.965 172.545 377.809 174.504 379.423 176.809C381.151 179.113 382.591 181.591 383.744 184.241C385.011 186.776 386.048 188.966 386.855 190.81C387.777 194.843 388.411 199.452 388.756 204.638C389.217 209.708 389.275 214.894 388.929 220.194C388.584 225.495 387.777 230.738 386.509 235.924C385.242 240.994 383.456 245.661 381.151 249.925C378.846 254.188 375.85 257.761 372.163 260.642C368.59 263.522 364.327 265.309 359.372 266C356.721 266 354.705 265.136 353.322 263.407C351.939 261.563 350.902 259.374 350.211 256.839C349.634 254.188 349.289 251.538 349.173 248.888C349.173 246.237 349.173 244.048 349.173 242.319ZM357.989 241.801C357.989 242.953 357.989 244.048 357.989 245.085C358.104 246.122 358.219 247.159 358.335 248.196C358.565 249.118 358.796 250.155 359.026 251.308C359.372 252.345 359.775 253.555 360.236 254.938H361.273C364.039 254.938 366.401 254.016 368.36 252.172C370.319 250.328 371.99 247.966 373.373 245.085C374.756 242.089 375.908 238.805 376.83 235.232C377.752 231.545 378.443 227.973 378.904 224.516C379.48 220.943 379.826 217.659 379.941 214.663C380.172 211.552 380.287 209.074 380.287 207.23V203.773C380.287 202.275 380.229 200.604 380.114 198.761C379.999 196.802 379.768 194.843 379.423 192.884C379.192 190.81 378.789 188.966 378.213 187.353C377.636 185.624 376.887 184.241 375.965 183.204C375.044 182.167 373.834 181.648 372.336 181.648C369.8 180.842 367.611 181.015 365.767 182.167C364.039 183.319 362.598 185.278 361.446 188.044C360.409 190.694 359.602 193.979 359.026 197.896C358.45 201.814 358.104 206.136 357.989 210.86C357.874 215.585 357.816 220.598 357.816 225.898C357.931 231.199 357.989 236.5 357.989 241.801ZM476.33 264.79C475.754 255.687 475.523 246.007 475.639 235.751C475.869 225.495 476.157 214.433 476.503 202.563C476.849 190.694 477.137 177.846 477.367 164.018C477.713 150.074 477.77 134.863 477.54 118.385C478.808 118.385 480.133 118.327 481.516 118.212C482.898 117.981 484.108 117.924 485.145 118.039C486.298 118.154 487.22 118.5 487.911 119.076C488.718 119.652 489.121 120.689 489.121 122.188C489.121 126.451 488.948 131.406 488.602 137.053C488.372 142.584 488.026 148.691 487.565 155.375C487.104 161.943 486.701 169.03 486.355 176.636C486.125 184.241 486.01 192.25 486.01 200.662C490.043 195.361 493.788 191.04 497.245 187.698C500.702 184.356 503.986 181.706 507.098 179.747C510.209 177.673 513.263 176.405 516.259 175.944C519.255 175.368 522.193 175.195 525.074 175.426C528.416 175.426 531.124 176.348 533.198 178.191C535.388 180.035 537.059 182.34 538.211 185.105C539.363 187.871 540.17 190.982 540.631 194.439C541.092 197.781 541.322 201.065 541.322 204.292C541.322 206.597 541.149 209.074 540.804 211.725C540.573 214.26 539.939 217.083 538.902 220.194C537.865 223.306 536.252 226.532 534.062 229.874C531.988 233.101 529.05 236.558 525.247 240.245C521.444 243.933 516.604 247.735 510.727 251.653C504.966 255.571 497.936 259.604 489.64 263.753C486.874 264.56 484.627 265.078 482.898 265.309C481.285 265.424 479.96 265.481 478.923 265.481C478.001 265.366 477.309 265.251 476.849 265.136C476.503 265.021 476.33 264.905 476.33 264.79ZM483.763 254.419C484.339 254.073 485.894 253.324 488.43 252.172C490.965 250.904 493.961 249.291 497.418 247.332C500.875 245.373 504.62 243.011 508.653 240.245C512.686 237.479 516.374 234.253 519.716 230.565C523.173 226.878 526.111 222.729 528.531 218.12C530.951 213.511 532.392 208.44 532.852 202.909C532.852 201.296 532.622 199.567 532.161 197.724C531.7 195.88 530.951 194.151 529.914 192.538C528.992 190.925 527.782 189.6 526.284 188.562C524.786 187.41 523 186.834 520.926 186.834C516.662 186.834 512.629 187.986 508.826 190.291C505.139 192.596 501.739 195.477 498.628 198.934C495.517 202.391 492.751 206.136 490.331 210.169C487.911 214.087 485.952 217.717 484.454 221.059L483.763 254.419ZM599.628 261.506C599.052 258.51 598.534 254.938 598.073 250.789C597.727 246.525 597.324 242.262 596.863 237.998C596.402 233.619 595.826 229.528 595.134 225.726C594.558 221.923 593.636 218.812 592.369 216.392C586.492 228.376 581.306 237.825 576.812 244.739C572.318 251.538 568.342 256.436 564.885 259.432C561.544 262.312 558.72 263.695 556.416 263.58C554.111 263.465 552.21 262.428 550.711 260.469C549.213 258.51 548.119 256.032 547.427 253.036C546.851 249.925 546.448 247.044 546.217 244.394C546.217 241.858 546.794 238.286 547.946 233.677C549.098 229.067 550.654 224.055 552.613 218.639C554.572 213.107 556.877 207.519 559.527 201.872C562.293 196.226 565.231 191.098 568.342 186.488C571.454 181.879 574.68 178.076 578.022 175.08C581.364 172.084 584.706 170.586 588.047 170.586C593.003 169.779 596.632 170.874 598.937 173.87C601.357 176.751 601.818 181.648 600.32 188.562C600.32 196.168 600.608 202.679 601.184 208.095C601.876 213.511 602.567 218.696 603.258 223.651C604.065 228.606 604.756 233.792 605.333 239.208C606.024 244.624 606.37 251.135 606.37 258.74C606.37 260.123 606.197 261.333 605.851 262.37C605.621 263.292 604.238 263.753 601.703 263.753C601.357 263.753 600.896 263.465 600.32 262.889C599.859 262.312 599.628 261.852 599.628 261.506ZM590.294 184.241C589.027 182.397 587.298 182.225 585.109 183.723C582.919 185.221 580.615 187.698 578.195 191.155C575.775 194.612 573.297 198.761 570.762 203.601C568.227 208.44 565.865 213.338 563.675 218.293C561.486 223.248 559.585 227.973 557.971 232.467C556.358 236.846 555.263 240.476 554.687 243.356C554.687 247.505 555.321 249.867 556.588 250.443C557.856 250.904 559.412 250.213 561.255 248.369C563.099 246.525 565.173 243.875 567.478 240.418C569.898 236.961 572.203 233.273 574.392 229.355C576.697 225.438 578.829 221.635 580.788 217.947C582.862 214.26 584.475 211.264 585.628 208.959C586.665 206.539 587.471 204.292 588.047 202.218C588.624 200.144 589.085 198.185 589.43 196.341C589.891 194.382 590.122 192.423 590.122 190.464C590.237 188.505 590.294 186.431 590.294 184.241ZM616.796 262.543C616.796 255.053 616.623 247.159 616.278 238.862C616.047 230.565 615.759 222.211 615.413 213.799C615.183 205.271 615.125 196.917 615.24 188.735C615.356 180.554 615.874 172.891 616.796 165.746C617.027 165.631 617.545 165.573 618.352 165.573C619.274 165.458 619.907 165.4 620.253 165.4C621.866 165.4 623.134 165.688 624.056 166.265C625.093 166.726 625.612 167.82 625.612 169.549C625.612 176.348 625.554 183.78 625.439 191.847C625.439 199.798 625.381 207.922 625.266 216.219C625.266 224.4 625.266 232.524 625.266 240.591C625.266 248.657 625.381 255.975 625.612 262.543C625.727 264.502 625.323 265.77 624.402 266.346C623.595 267.037 622.558 267.383 621.29 267.383C619.907 267.383 618.755 267.037 617.833 266.346C616.911 265.77 616.566 264.502 616.796 262.543ZM612.993 138.781C612.993 137.398 613.454 136.477 614.376 136.016C615.298 135.555 616.335 135.324 617.487 135.324C619.792 135.324 621.233 136.073 621.809 137.571C622.385 139.069 622.673 140.798 622.673 142.757C621.982 144.024 621.117 144.946 620.08 145.522C619.043 145.983 617.948 146.099 616.796 145.868C615.759 145.522 614.837 144.773 614.03 143.621C613.339 142.469 612.993 140.855 612.993 138.781ZM636.211 182.686V181.303C636.211 180.15 636.614 179.344 637.421 178.883C638.343 178.422 639.38 178.191 640.532 178.191C641.454 178.191 642.318 178.307 643.125 178.537C643.931 178.652 644.565 179.286 645.026 180.438C645.372 182.167 645.718 184.587 646.063 187.698C646.409 190.694 646.812 194.036 647.273 197.724C647.734 201.411 648.195 205.329 648.656 209.478C649.232 213.511 649.751 217.371 650.212 221.059C650.788 224.631 651.364 227.857 651.94 230.738C652.516 233.619 653.15 235.809 653.842 237.307C653.496 226.244 653.842 216.68 654.879 208.613C655.916 200.432 657.875 193.806 660.756 188.735C663.752 183.55 667.785 179.978 672.855 178.019C678.041 175.944 684.494 175.483 692.215 176.636C695.787 176.636 697.573 178.537 697.573 182.34C697.573 183.838 696.594 184.875 694.635 185.451C692.676 185.912 690.486 186.258 688.066 186.488C685.646 186.604 683.284 186.776 680.979 187.007C678.675 187.237 677.004 187.813 675.967 188.735C671.818 191.04 668.88 194.612 667.151 199.452C665.538 204.292 664.386 209.996 663.694 216.564C663.003 223.133 662.484 230.335 662.139 238.171C661.908 245.892 661.159 253.843 659.891 262.024C659.891 263.177 659.431 264.041 658.509 264.617C657.587 265.193 656.434 265.481 655.052 265.481C653.784 265.481 652.516 265.193 651.249 264.617C650.097 264.041 649.175 263.177 648.483 262.024L636.211 182.686ZM705.061 182.686V181.303C705.061 180.15 705.464 179.344 706.271 178.883C707.193 178.422 708.23 178.191 709.382 178.191C710.304 178.191 711.168 178.307 711.975 178.537C712.782 178.652 713.415 179.286 713.876 180.438C714.222 182.167 714.568 184.587 714.914 187.698C715.259 190.694 715.663 194.036 716.124 197.724C716.584 201.411 717.045 205.329 717.506 209.478C718.082 213.511 718.601 217.371 719.062 221.059C719.638 224.631 720.214 227.857 720.79 230.738C721.367 233.619 722 235.809 722.692 237.307C722.346 226.244 722.692 216.68 723.729 208.613C724.766 200.432 726.725 193.806 729.606 188.735C732.602 183.55 736.635 179.978 741.706 178.019C746.891 175.944 753.344 175.483 761.065 176.636C764.637 176.636 766.423 178.537 766.423 182.34C766.423 183.838 765.444 184.875 763.485 185.451C761.526 185.912 759.336 186.258 756.916 186.488C754.497 186.604 752.134 186.776 749.83 187.007C747.525 187.237 745.854 187.813 744.817 188.735C740.668 191.04 737.73 194.612 736.001 199.452C734.388 204.292 733.236 209.996 732.544 216.564C731.853 223.133 731.334 230.335 730.989 238.171C730.758 245.892 730.009 253.843 728.742 262.024C728.742 263.177 728.281 264.041 727.359 264.617C726.437 265.193 725.285 265.481 723.902 265.481C722.634 265.481 721.367 265.193 720.099 264.617C718.947 264.041 718.025 263.177 717.333 262.024L705.061 182.686ZM773.738 242.319C772.932 237.019 772.528 231.891 772.528 226.936C772.528 221.865 772.817 216.737 773.393 211.552C774.084 206.366 775.006 201.008 776.158 195.477C777.426 189.83 778.866 183.78 780.48 177.327C780.48 176.06 780.825 174.907 781.517 173.87C782.208 172.718 783.13 171.796 784.282 171.104C785.435 170.298 786.645 169.664 787.912 169.203C789.18 168.742 790.39 168.512 791.542 168.512C794.077 168.512 796.382 169.318 798.456 170.932C800.53 172.545 802.374 174.504 803.987 176.809C805.716 179.113 807.156 181.591 808.309 184.241C809.576 186.776 810.613 188.966 811.42 190.81C812.342 194.843 812.976 199.452 813.321 204.638C813.782 209.708 813.84 214.894 813.494 220.194C813.149 225.495 812.342 230.738 811.074 235.924C809.807 240.994 808.021 245.661 805.716 249.925C803.411 254.188 800.415 257.761 796.728 260.642C793.155 263.522 788.892 265.309 783.937 266C781.286 266 779.27 265.136 777.887 263.407C776.504 261.563 775.467 259.374 774.776 256.839C774.199 254.188 773.854 251.538 773.738 248.888C773.738 246.237 773.738 244.048 773.738 242.319ZM782.554 241.801C782.554 242.953 782.554 244.048 782.554 245.085C782.669 246.122 782.784 247.159 782.9 248.196C783.13 249.118 783.36 250.155 783.591 251.308C783.937 252.345 784.34 253.555 784.801 254.938H785.838C788.604 254.938 790.966 254.016 792.925 252.172C794.884 250.328 796.555 247.966 797.938 245.085C799.32 242.089 800.473 238.805 801.395 235.232C802.317 231.545 803.008 227.973 803.469 224.516C804.045 220.943 804.391 217.659 804.506 214.663C804.736 211.552 804.852 209.074 804.852 207.23V203.773C804.852 202.275 804.794 200.604 804.679 198.761C804.564 196.802 804.333 194.843 803.987 192.884C803.757 190.81 803.354 188.966 802.777 187.353C802.201 185.624 801.452 184.241 800.53 183.204C799.609 182.167 798.399 181.648 796.901 181.648C794.365 180.842 792.176 181.015 790.332 182.167C788.604 183.319 787.163 185.278 786.011 188.044C784.974 190.694 784.167 193.979 783.591 197.896C783.015 201.814 782.669 206.136 782.554 210.86C782.439 215.585 782.381 220.598 782.381 225.898C782.496 231.199 782.554 236.5 782.554 241.801Z" fill="white"/>
<path d="M234.258 5.50003C225.325 18.4334 223.058 25.5 222.925 40.8334C222.792 53.3667 222.392 55.6334 219.058 62.1667C213.058 73.7667 203.992 84.1667 180.792 106.3C169.058 117.5 158.792 131.767 155.592 136.167C149.058 145.367 144.298 157.167 144.592 155.667C145.028 153.433 143.992 158.7 142.658 161.9C140.125 168.433 139.858 167.3 139.858 159.167C139.858 155.7 139.858 158.167 139.858 154.967C139.858 157.167 140.525 142.033 137.725 131.367C136.258 126.033 135.992 120.567 136.525 112.433C137.725 95.2334 132.658 83.2334 120.258 74.3C108.925 66.1667 106.125 69.6334 108.658 88.4334C110.392 101.233 114.658 110.967 122.125 118.833C129.858 126.967 133.192 140.833 133.725 167.5C133.992 184.167 134.392 188.433 135.992 189.367C138.925 191.233 142.258 188.033 142.258 183.5C142.258 177.633 147.325 162.3 152.392 152.967C157.858 142.967 163.858 134.967 173.058 125.233C180.792 116.967 181.325 117.1 190.792 127.633C204.125 142.433 204.125 163.5 190.925 179.233C186.125 184.967 179.192 188.967 169.725 191.5L161.592 193.5L160.925 224.433C160.258 258.167 160.125 258.7 151.458 265.233C145.725 269.367 138.925 270.167 104.258 270.167C62.3915 270.167 57.5915 268.967 51.1915 257.5C48.3915 252.567 48.2582 250.167 47.8582 222.567L47.4582 192.967L42.5248 192.167C34.6582 190.833 27.3248 187.233 21.1915 181.633C10.1248 171.5 5.85817 157.767 9.45817 144.3C13.8582 128.3 26.7915 116.7 42.9248 114.433L49.4582 113.5L51.0582 103.5C53.1915 91.3667 57.8582 81.6334 65.8582 73.6334C73.5915 65.7667 80.7915 61.6334 91.0582 58.9667C101.192 56.3 108.792 56.3 117.725 58.7C139.325 64.4334 155.725 82.5667 158.125 103.367C159.192 112.167 160.125 114.167 163.592 114.167C172.925 114.167 164.125 83.1 150.925 68.9667C116.125 31.7667 53.5915 48.5667 43.4582 97.7667C41.8582 105.767 41.5915 106.033 36.9248 106.833C28.9248 108.167 16.7915 115.767 10.6582 123.233C-5.07517 142.433 -3.2085 170.3 15.0582 187.5C21.9915 194.033 31.9915 199.5 36.9248 199.5C39.1915 199.5 39.4582 201.367 39.8582 227.9L40.2582 255.433L40.5916 257.667L41.0916 258.667L41.5916 259.667L42.0916 260.667L43.5916 263.167C46.5916 267.167 50.7915 270.967 54.7915 273.5L59.0582 276.5L63.3248 277.5L101.858 277.9C149.058 278.433 151.858 277.9 160.792 268.167C169.192 259.1 170.658 251.9 170.125 223.767L169.592 200.3L173.592 199.5C183.192 197.367 194.525 189.5 200.792 180.3C214.658 160.167 210.525 130.567 191.592 116.3L186.525 112.567L197.192 102.433C209.858 90.3 218.925 79.1 224.925 68.1667C227.458 63.7667 232.258 57.1 235.725 53.3667C245.992 42.3 248.258 36.8334 248.258 22.8334C248.258 13.5 247.592 9.63336 245.592 5.50003C241.858 -1.8333 239.325 -1.8333 234.258 5.50003Z" fill="white"/>
<path d="M195.725 15.1C193.325 19.6333 191.191 34.3 191.991 41.2333C193.458 55.1 201.325 71.5 206.525 71.5C208.258 71.5 210.125 69.2333 212.658 63.7667C215.725 57.3667 216.258 54.4333 216.258 44.8333C216.258 32.4333 214.925 28.5667 206.658 18.4333C201.858 12.5667 197.858 11.2333 195.725 15.1Z" fill="white"/>
<path d="M175.992 42.4333C173.458 45.6333 169.325 58.8333 168.392 66.1667C167.325 74.9667 169.192 86.1667 173.058 93.7667C176.792 101.1 179.458 102.033 183.192 97.2333C194.925 82.5667 195.725 61.2333 184.925 46.4333C180.792 40.7 178.258 39.6333 175.992 42.4333Z" fill="white"/>
<path d="M260.258 48.8334C243.991 54.4334 232.258 63.7667 226.391 75.7667C221.991 84.9667 222.791 86.8334 231.191 86.7001C248.125 86.3001 262.925 75.9001 268.658 60.4334C270.258 56.1667 271.591 51.9001 271.591 50.8334C271.591 47.2334 267.191 46.4334 260.258 48.8334Z" fill="white"/>
<path d="M218.658 96.0334C211.725 98.3001 205.325 102.167 200.392 107.367C195.592 112.3 196.792 114.3 206.525 117.633C215.592 120.567 230.258 119.767 238.525 115.767C245.992 112.033 255.592 102.833 255.592 99.3667C255.592 97.7667 254.258 96.3001 252.125 95.5001C247.325 93.6334 225.325 94.0334 218.658 96.0334Z" fill="white"/>
<path d="M81.3249 111.1C80.1249 114.3 85.8582 124.3 93.9915 133.1C102.258 141.9 114.658 148.833 122.525 148.833C127.058 148.833 127.592 148.433 127.592 145.5C127.592 133.233 114.125 115.367 101.725 111.1C92.9249 108.033 82.5249 108.033 81.3249 111.1Z" fill="white"/>
<path d="M66.9248 207.367C63.9914 208.7 60.5248 211.1 59.0581 212.567C54.2581 218.033 60.1248 223.233 65.3248 218.3C67.0581 216.833 70.2581 214.833 72.6581 214.033C78.1248 212.167 82.9248 214.967 85.7248 221.633C88.1248 227.233 91.0581 228.7 93.9914 225.633C96.1248 223.633 95.9914 222.967 92.9248 217.1C86.9248 205.767 77.8581 202.3 66.9248 207.367Z" fill="white"/>
<path d="M125.458 207.1C120.792 209.367 114.258 218.567 114.258 222.967C114.258 225.633 116.525 227.5 119.725 227.5C120.392 227.5 122.125 225.1 123.592 222.167C125.058 219.233 127.858 215.9 129.725 214.7C132.925 212.567 133.458 212.567 138.658 215.233C141.725 216.833 145.192 218.833 146.525 219.767C148.258 220.967 149.192 220.967 150.792 219.633C153.992 216.967 153.325 214.7 148.658 211.1C140.258 204.833 132.525 203.5 125.458 207.1Z" fill="white"/>
<path d="M83.1916 241.767C79.7249 245.1 87.3249 253.9 96.2582 256.833C106.792 260.3 123.192 254.833 126.258 246.833C128.525 240.833 121.992 238.833 116.925 244.167C111.992 249.5 105.725 250.833 98.9249 248.3C95.8582 247.1 92.1249 244.833 90.9249 243.5C88.5249 240.833 84.7916 240.033 83.1916 241.767Z" fill="white"/>
</svg>
